<?xml version="1.0" encoding="utf-8"?>
<!-- Generator: Adobe Illustrator 16.0.0, SVG Export Plug-In . SVG Version: 6.00 Build 0)  -->
<!DOCTYPE svg PUBLIC "-//W3C//DTD SVG 1.1//EN" "http://www.w3.org/Graphics/SVG/1.1/DTD/svg11.dtd">
<svg version="1.1" id="Capa_1" xmlns="http://www.w3.org/2000/svg" xmlns:xlink="http://www.w3.org/1999/xlink" x="0px" y="0px"
	 width="32px" height="32px" viewBox="0 0 32 32" enable-background="new 0 0 32 32" xml:space="preserve">
<g>
	<path fill="#5CB85C" d="M25.062,11.592c0.004-0.06,0.002-0.12-0.004-0.18c-0.011-0.066-0.024-0.128-0.047-0.188
		c-0.018-0.273-0.156-0.535-0.406-0.694l-6.932-4.424c-0.043-0.028-0.087-0.049-0.134-0.067c-0.163-0.093-0.353-0.14-0.552-0.113
		L4.162,7.53C3.677,7.591,3.334,8.033,3.394,8.519C3.395,8.533,3.4,8.546,3.404,8.56v12.531c0,0.004,0.002,0.009,0.002,0.015
		c0,0.033,0.004,0.067,0.01,0.102c0.003,0.023,0.005,0.051,0.011,0.075c0.006,0.026,0.015,0.054,0.024,0.079
		c0.009,0.027,0.017,0.058,0.026,0.082c0.013,0.024,0.026,0.051,0.039,0.072c0.014,0.025,0.026,0.051,0.044,0.075
		c0.016,0.023,0.036,0.044,0.053,0.065c0.021,0.021,0.036,0.045,0.057,0.066c0.018,0.018,0.039,0.028,0.06,0.045
		c0.023,0.021,0.051,0.045,0.079,0.062c0.003,0.004,0.007,0.007,0.01,0.009l7.438,4.67c0.148,0.092,0.311,0.137,0.471,0.137
		c0.104,0,0.211-0.021,0.311-0.058l0,0l12.094-1.573c0.275-0.035,0.5-0.195,0.637-0.414c0.184-0.162,0.297-0.396,0.297-0.66V11.62
		C25.064,11.609,25.062,11.601,25.062,11.592z M10.547,23.975l-5.374-3.373V10.146l5.374,3.542V23.975z M11.573,12.207
		c-0.021-0.003-0.044-0.005-0.066-0.007L6.652,9.003l10.262-1.285l5.004,3.195L11.573,12.207z M23.295,23.34l-10.979,1.428V13.983
		c0.028-0.03,0.056-0.061,0.079-0.096l10.899-1.363L23.295,23.34L23.295,23.34z"/>
	<path fill="#5CB85C" d="M26.286,20.576c-3.155,0-5.712,2.557-5.712,5.711c0,3.156,2.557,5.713,5.712,5.713S32,29.443,32,26.287
		C32,23.133,29.441,20.576,26.286,20.576z M29.615,22.982c-0.023,0.031-0.096,0.099-0.208,0.201
		c-0.582,0.539-1.222,1.336-1.919,2.392c-0.694,1.052-1.276,2.161-1.746,3.319c-0.188,0.461-0.317,0.738-0.389,0.832
		c-0.07,0.097-0.293,0.146-0.668,0.146c-0.271,0-0.433-0.027-0.483-0.082c-0.054-0.056-0.159-0.204-0.322-0.447
		c-0.261-0.407-0.563-0.791-0.907-1.153c-0.175-0.183-0.261-0.316-0.261-0.412c0-0.127,0.095-0.258,0.283-0.392
		c0.188-0.135,0.345-0.2,0.471-0.2c0.16,0,0.354,0.09,0.591,0.266c0.232,0.177,0.493,0.511,0.781,1.005
		c0.312-0.701,0.646-1.378,1.008-2.028c0.359-0.647,0.747-1.27,1.159-1.853c0.415-0.587,0.731-0.987,0.95-1.203
		c0.219-0.218,0.369-0.345,0.452-0.381c0.084-0.038,0.269-0.076,0.556-0.116c0.285-0.04,0.48-0.061,0.587-0.061
		c0.067,0,0.101,0.026,0.101,0.076C29.65,22.924,29.639,22.954,29.615,22.982z"/>
</g>
</svg>
