<?xml version="1.0" encoding="utf-8"?>
<!-- Generator: Adobe Illustrator 16.0.0, SVG Export Plug-In . SVG Version: 6.00 Build 0)  -->
<!DOCTYPE svg PUBLIC "-//W3C//DTD SVG 1.1//EN" "http://www.w3.org/Graphics/SVG/1.1/DTD/svg11.dtd">
<svg version="1.1" id="Capa_1" xmlns="http://www.w3.org/2000/svg" xmlns:xlink="http://www.w3.org/1999/xlink" x="0px" y="0px"
	 width="32px" height="32px" viewBox="0 0 32 32" enable-background="new 0 0 32 32" xml:space="preserve">
<g>
	<path fill="#F0AD4E" d="M26.286,20.577c-3.155,0-5.711,2.556-5.711,5.711S23.131,32,26.286,32C29.439,32,32,29.443,32,26.288
		S29.439,20.577,26.286,20.577z M28.848,26.958h-1.893v1.89c0,0.37-0.299,0.668-0.669,0.668c-0.369,0-0.668-0.298-0.668-0.668v-1.89
		h-1.89c-0.371,0-0.67-0.302-0.67-0.67s0.299-0.667,0.67-0.667h1.89v-1.895c0-0.369,0.299-0.666,0.668-0.666
		c0.37,0,0.669,0.297,0.669,0.666v1.895h1.893c0.369,0,0.67,0.299,0.67,0.667S29.217,26.958,28.848,26.958z"/>
	<path fill="#F0AD4E" d="M27.8,5.968c-0.081-0.256-0.268-0.464-0.516-0.572l-7.507-3.258c-0.42-0.184-0.912-0.029-1.156,0.362
		l-2.732,4.416c-0.005,0.007-0.007,0.013-0.011,0.021l-6.313,0.73L9.113,6.616C9.027,6.408,8.866,6.241,8.664,6.144l-6.42-3.071
		C1.896,2.907,1.48,2.974,1.202,3.24C0.924,3.507,0.841,3.918,0.993,4.273L3.045,9.08v12.357c0,0.312,0.159,0.604,0.422,0.775
		l6.805,4.409c0.004,0.002,0.008,0.003,0.01,0.006c0.066,0.041,0.138,0.073,0.213,0.101c0.015,0.004,0.031,0.008,0.049,0.012
		c0.076,0.02,0.154,0.035,0.232,0.035c0.037,0,0.07-0.004,0.106-0.008l12.706-1.472c0.469-0.054,0.818-0.451,0.818-0.92v-12.3
		l3.298-5.343C27.846,6.503,27.881,6.224,27.8,5.968z M17.232,8.425l4.672,3.028l-4.672,0.539V8.425z M16.008,8.041
		c0.034,0.036,0.072,0.068,0.112,0.098v3.983l-4.437,0.514L10.02,8.733L16.008,8.041z M7.549,7.665l1.701,3.983L4.892,8.825
		c-0.003-0.041-0.005-0.08-0.014-0.121C4.866,8.643,4.847,8.583,4.822,8.526L3.66,5.805L7.549,7.665z M4.898,10.153l4.952,3.208
		v10.78l-4.952-3.207V10.153z M11.703,24.807V13.819c0.016-0.023,0.031-0.048,0.047-0.072l10.805-1.25V23.55L11.703,24.807z
		 M22.995,10.836l-5.249-3.402l2.029-3.278l5.791,2.513L22.995,10.836z"/>
</g>
</svg>
